<svg id="visual" viewBox="0 0 2000 150" width="2000" height="150" xmlns="http://www.w3.org/2000/svg" xmlns:xlink="http://www.w3.org/1999/xlink" version="1.1"><rect x="0" y="0" width="2000" height="150" fill="#F7770F"></rect><path d="M0 148L47.7 136C95.3 124 190.7 100 285.8 90.3C381 80.7 476 85.3 571.2 84.2C666.3 83 761.7 76 857 77.5C952.3 79 1047.7 89 1143 93C1238.3 97 1333.7 95 1428.8 87C1524 79 1619 65 1714.2 70C1809.3 75 1904.7 99 1952.3 111L2000 123L2000 151L1952.3 151C1904.7 151 1809.3 151 1714.2 151C1619 151 1524 151 1428.8 151C1333.7 151 1238.3 151 1143 151C1047.7 151 952.3 151 857 151C761.7 151 666.3 151 571.2 151C476 151 381 151 285.8 151C190.7 151 95.3 151 47.7 151L0 151Z" fill="#ff9f0e" stroke-linecap="round" stroke-linejoin="miter"></path></svg>