<svg id="visual" viewBox="0 0 2000 150" width="2000" height="150" xmlns="http://www.w3.org/2000/svg" xmlns:xlink="http://www.w3.org/1999/xlink" version="1.1"><rect x="0" y="0" width="2000" height="150" fill="#135aff"></rect><path d="M0 67L47.7 79.7C95.3 92.3 190.7 117.7 285.8 125.3C381 133 476 123 571.2 113.8C666.3 104.7 761.7 96.3 857 88.3C952.3 80.3 1047.7 72.7 1143 70.8C1238.3 69 1333.7 73 1428.8 70.3C1524 67.7 1619 58.3 1714.2 62.2C1809.3 66 1904.7 83 1952.3 91.5L2000 100L2000 151L1952.3 151C1904.7 151 1809.3 151 1714.2 151C1619 151 1524 151 1428.8 151C1333.7 151 1238.3 151 1143 151C1047.7 151 952.3 151 857 151C761.7 151 666.3 151 571.2 151C476 151 381 151 285.8 151C190.7 151 95.3 151 47.7 151L0 151Z" fill="#4c82ff" stroke-linecap="round" stroke-linejoin="miter"></path></svg>