<svg id="visual" viewBox="0 0 300 150" width="300" height="150" xmlns="http://www.w3.org/2000/svg" xmlns:xlink="http://www.w3.org/1999/xlink" version="1.1"><rect x="0" y="0" width="300" height="150" fill="#F7770F"></rect><defs><linearGradient id="grad1_0" x1="50%" y1="0%" x2="100%" y2="100%"><stop offset="10%" stop-color="#f7770f" stop-opacity="1"></stop><stop offset="90%" stop-color="#f7770f" stop-opacity="1"></stop></linearGradient></defs><defs><linearGradient id="grad2_0" x1="0%" y1="0%" x2="50%" y2="100%"><stop offset="10%" stop-color="#f7770f" stop-opacity="1"></stop><stop offset="90%" stop-color="#f7770f" stop-opacity="1"></stop></linearGradient></defs><g transform="translate(300, 0)"><path d="M0 135C-18.7 134.4 -37.5 133.7 -51.7 124.7C-65.8 115.7 -75.4 98.4 -84.1 84.1C-92.9 69.9 -100.7 58.7 -109 45.2C-117.3 31.6 -126.2 15.8 -135 0L0 0Z" fill="#ff9f0e"></path></g><g transform="translate(0, 150)"><path d="M0 -135C15.2 -124.7 30.4 -114.4 44 -106.2C57.6 -98.1 69.6 -92.2 84.1 -84.1C98.7 -76.1 115.8 -66 124.7 -51.7C133.6 -37.3 134.3 -18.6 135 0L0 0Z" fill="#ff9f0e"></path></g></svg>