<svg id="visual" viewBox="0 0 300 150" width="300" height="150" xmlns="http://www.w3.org/2000/svg" xmlns:xlink="http://www.w3.org/1999/xlink" version="1.1"><path d="M0 30L4.5 34.5C9 39 18 48 27.2 48C36.3 48 45.7 39 54.8 37.7C64 36.3 73 42.7 82 44.7C91 46.7 100 44.3 109 44.3C118 44.3 127 46.7 136.2 46.3C145.3 46 154.7 43 163.8 40.3C173 37.7 182 35.3 191 36.7C200 38 209 43 218 44.2C227 45.3 236 42.7 245.2 42.3C254.3 42 263.7 44 272.8 43.8C282 43.7 291 41.3 295.5 40.2L300 39L300 0L295.5 0C291 0 282 0 272.8 0C263.7 0 254.3 0 245.2 0C236 0 227 0 218 0C209 0 200 0 191 0C182 0 173 0 163.8 0C154.7 0 145.3 0 136.2 0C127 0 118 0 109 0C100 0 91 0 82 0C73 0 64 0 54.8 0C45.7 0 36.3 0 27.2 0C18 0 9 0 4.5 0L0 0Z" fill="#365cc2"></path><path d="M0 45L4.5 48.5C9 52 18 59 27.2 58.2C36.3 57.3 45.7 48.7 54.8 48C64 47.3 73 54.7 82 57C91 59.3 100 56.7 109 56.3C118 56 127 58 136.2 57C145.3 56 154.7 52 163.8 49.7C173 47.3 182 46.7 191 48.3C200 50 209 54 218 55.3C227 56.7 236 55.3 245.2 54.8C254.3 54.3 263.7 54.7 272.8 54.2C282 53.7 291 52.3 295.5 51.7L300 51L300 37L295.5 38.2C291 39.3 282 41.7 272.8 41.8C263.7 42 254.3 40 245.2 40.3C236 40.7 227 43.3 218 42.2C209 41 200 36 191 34.7C182 33.3 173 35.7 163.8 38.3C154.7 41 145.3 44 136.2 44.3C127 44.7 118 42.3 109 42.3C100 42.3 91 44.7 82 42.7C73 40.7 64 34.3 54.8 35.7C45.7 37 36.3 46 27.2 46C18 46 9 37 4.5 32.5L0 28Z" fill="#3e68d6"></path><path d="M0 55L4.5 58.5C9 62 18 69 27.2 69.8C36.3 70.7 45.7 65.3 54.8 65.7C64 66 73 72 82 74C91 76 100 74 109 72.7C118 71.3 127 70.7 136.2 68.3C145.3 66 154.7 62 163.8 60.3C173 58.7 182 59.3 191 62.8C200 66.3 209 72.7 218 73.8C227 75 236 71 245.2 70C254.3 69 263.7 71 272.8 71.5C282 72 291 71 295.5 70.5L300 70L300 49L295.5 49.7C291 50.3 282 51.7 272.8 52.2C263.7 52.7 254.3 52.3 245.2 52.8C236 53.3 227 54.7 218 53.3C209 52 200 48 191 46.3C182 44.7 173 45.3 163.8 47.7C154.7 50 145.3 54 136.2 55C127 56 118 54 109 54.3C100 54.7 91 57.3 82 55C73 52.7 64 45.3 54.8 46C45.7 46.7 36.3 55.3 27.2 56.2C18 57 9 50 4.5 46.5L0 43Z" fill="#4575ea"></path><path d="M0 67L4.5 70C9 73 18 79 27.2 79.3C36.3 79.7 45.7 74.3 54.8 74.5C64 74.7 73 80.3 82 83.2C91 86 100 86 109 84.7C118 83.3 127 80.7 136.2 79C145.3 77.3 154.7 76.7 163.8 75.7C173 74.7 182 73.3 191 76.7C200 80 209 88 218 88.5C227 89 236 82 245.2 80C254.3 78 263.7 81 272.8 82.7C282 84.3 291 84.7 295.5 84.8L300 85L300 68L295.5 68.5C291 69 282 70 272.8 69.5C263.7 69 254.3 67 245.2 68C236 69 227 73 218 71.8C209 70.7 200 64.3 191 60.8C182 57.3 173 56.7 163.8 58.3C154.7 60 145.3 64 136.2 66.3C127 68.7 118 69.3 109 70.7C100 72 91 74 82 72C73 70 64 64 54.8 63.7C45.7 63.3 36.3 68.7 27.2 67.8C18 67 9 60 4.5 56.5L0 53Z" fill="#4c82ff"></path><path d="M0 121L4.5 119C9 117 18 113 27.2 111C36.3 109 45.7 109 54.8 109.3C64 109.7 73 110.3 82 111.3C91 112.3 100 113.7 109 112.2C118 110.7 127 106.3 136.2 106.7C145.3 107 154.7 112 163.8 114C173 116 182 115 191 116.5C200 118 209 122 218 121.5C227 121 236 116 245.2 116C254.3 116 263.7 121 272.8 122.7C282 124.3 291 122.7 295.5 121.8L300 121L300 83L295.5 82.8C291 82.7 282 82.3 272.8 80.7C263.7 79 254.3 76 245.2 78C236 80 227 87 218 86.5C209 86 200 78 191 74.7C182 71.3 173 72.7 163.8 73.7C154.7 74.7 145.3 75.3 136.2 77C127 78.7 118 81.3 109 82.7C100 84 91 84 82 81.2C73 78.3 64 72.7 54.8 72.5C45.7 72.3 36.3 77.7 27.2 77.3C18 77 9 71 4.5 68L0 65Z" fill="#618fff"></path><path d="M0 141L4.5 139.2C9 137.3 18 133.7 27.2 132.7C36.3 131.7 45.7 133.3 54.8 134.8C64 136.3 73 137.7 82 137.8C91 138 100 137 109 136.5C118 136 127 136 136.2 136.5C145.3 137 154.7 138 163.8 137.8C173 137.7 182 136.3 191 136.3C200 136.3 209 137.7 218 137.8C227 138 236 137 245.2 137.5C254.3 138 263.7 140 272.8 139.8C282 139.7 291 137.3 295.5 136.2L300 135L300 119L295.5 119.8C291 120.7 282 122.3 272.8 120.7C263.7 119 254.3 114 245.2 114C236 114 227 119 218 119.5C209 120 200 116 191 114.5C182 113 173 114 163.8 112C154.7 110 145.3 105 136.2 104.7C127 104.3 118 108.7 109 110.2C100 111.7 91 110.3 82 109.3C73 108.3 64 107.7 54.8 107.3C45.7 107 36.3 107 27.2 109C18 111 9 115 4.5 117L0 119Z" fill="#759cff"></path><path d="M0 151L4.5 151C9 151 18 151 27.2 151C36.3 151 45.7 151 54.8 151C64 151 73 151 82 151C91 151 100 151 109 151C118 151 127 151 136.2 151C145.3 151 154.7 151 163.8 151C173 151 182 151 191 151C200 151 209 151 218 151C227 151 236 151 245.2 151C254.3 151 263.7 151 272.8 151C282 151 291 151 295.5 151L300 151L300 133L295.5 134.2C291 135.3 282 137.7 272.8 137.8C263.7 138 254.3 136 245.2 135.5C236 135 227 136 218 135.8C209 135.7 200 134.3 191 134.3C182 134.3 173 135.7 163.8 135.8C154.7 136 145.3 135 136.2 134.5C127 134 118 134 109 134.5C100 135 91 136 82 135.8C73 135.7 64 134.3 54.8 132.8C45.7 131.3 36.3 129.7 27.2 130.7C18 131.7 9 135.3 4.5 137.2L0 139Z" fill="#87a9ff"></path></svg>