<svg id="visual" viewBox="0 0 2000 150" width="2000" height="150" xmlns="http://www.w3.org/2000/svg" xmlns:xlink="http://www.w3.org/1999/xlink" version="1.1"><rect x="0" y="0" width="2000" height="150" fill="#C62368"></rect><path d="M0 60L47.7 65.8C95.3 71.7 190.7 83.3 285.8 90.3C381 97.3 476 99.7 571.2 96.3C666.3 93 761.7 84 857 85.7C952.3 87.3 1047.7 99.7 1143 101C1238.3 102.3 1333.7 92.7 1428.8 91C1524 89.3 1619 95.7 1714.2 98.5C1809.3 101.3 1904.7 100.7 1952.3 100.3L2000 100L2000 151L1952.3 151C1904.7 151 1809.3 151 1714.2 151C1619 151 1524 151 1428.8 151C1333.7 151 1238.3 151 1143 151C1047.7 151 952.3 151 857 151C761.7 151 666.3 151 571.2 151C476 151 381 151 285.8 151C190.7 151 95.3 151 47.7 151L0 151Z" fill="#f23882" stroke-linecap="round" stroke-linejoin="miter"></path></svg>