<svg id="visual" viewBox="0 0 2000 150" width="2000" height="150" xmlns="http://www.w3.org/2000/svg" xmlns:xlink="http://www.w3.org/1999/xlink" version="1.1"><rect x="0" y="0" width="2000" height="150" fill="#ff0066"></rect><path d="M0 38L37 51.8C74 65.7 148 93.3 222 95.3C296 97.3 370 73.7 444.2 62C518.3 50.3 592.7 50.7 666.8 63.5C741 76.3 815 101.7 889 108.5C963 115.3 1037 103.7 1111 92.3C1185 81 1259 70 1333.2 74.8C1407.3 79.7 1481.7 100.3 1555.8 107.3C1630 114.3 1704 107.7 1778 96C1852 84.3 1926 67.7 1963 59.3L2000 51L2000 151L1963 151C1926 151 1852 151 1778 151C1704 151 1630 151 1555.8 151C1481.7 151 1407.3 151 1333.2 151C1259 151 1185 151 1111 151C1037 151 963 151 889 151C815 151 741 151 666.8 151C592.7 151 518.3 151 444.2 151C370 151 296 151 222 151C148 151 74 151 37 151L0 151Z" fill="#ff3b8a" stroke-linecap="round" stroke-linejoin="miter"></path></svg>